<svg width="33" height="33" viewBox="0 0 33 33" fill="none" xmlns="http://www.w3.org/2000/svg">
<path d="M16.5 19.5L13.5 16.5L16.5 13.5L19.5 16.5L16.5 19.5ZM13.3125 10.6875L9.5625 6.9375L16.5 0L23.4375 6.9375L19.6875 10.6875L16.5 7.5L13.3125 10.6875ZM6.9375 23.4375L0 16.5L6.9375 9.5625L10.6875 13.3125L7.5 16.5L10.6875 19.6875L6.9375 23.4375ZM26.0625 23.4375L22.3125 19.6875L25.5 16.5L22.3125 13.3125L26.0625 9.5625L33 16.5L26.0625 23.4375ZM16.5 33L9.5625 26.0625L13.3125 22.3125L16.5 25.5L19.6875 22.3125L23.4375 26.0625L16.5 33Z" fill="#10B77F"/>
</svg>
