<svg width="24" height="24" viewBox="0 0 24 24" fill="none" xmlns="http://www.w3.org/2000/svg">
<path d="M2.5 23.75C1.8125 23.75 1.22396 23.5052 0.734375 23.0156C0.244792 22.526 0 21.9375 0 21.25V16.25C0 15.5625 0.244792 14.974 0.734375 14.4844C1.22396 13.9948 1.8125 13.75 2.5 13.75H15V8.75H17.5V13.75H20C20.6875 13.75 21.276 13.9948 21.7656 14.4844C22.2552 14.974 22.5 15.5625 22.5 16.25V21.25C22.5 21.9375 22.2552 22.526 21.7656 23.0156C21.276 23.5052 20.6875 23.75 20 23.75H2.5ZM2.5 21.25H20V16.25H2.5V21.25ZM5 20C5.35417 20 5.65104 19.8802 5.89062 19.6406C6.13021 19.401 6.25 19.1042 6.25 18.75C6.25 18.3958 6.13021 18.099 5.89062 17.8594C5.65104 17.6198 5.35417 17.5 5 17.5C4.64583 17.5 4.34896 17.6198 4.10938 17.8594C3.86979 18.099 3.75 18.3958 3.75 18.75C3.75 19.1042 3.86979 19.401 4.10938 19.6406C4.34896 19.8802 4.64583 20 5 20ZM9.375 20C9.72917 20 10.026 19.8802 10.2656 19.6406C10.5052 19.401 10.625 19.1042 10.625 18.75C10.625 18.3958 10.5052 18.099 10.2656 17.8594C10.026 17.6198 9.72917 17.5 9.375 17.5C9.02083 17.5 8.72396 17.6198 8.48438 17.8594C8.24479 18.099 8.125 18.3958 8.125 18.75C8.125 19.1042 8.24479 19.401 8.48438 19.6406C8.72396 19.8802 9.02083 20 9.375 20ZM13.75 20C14.1042 20 14.401 19.8802 14.6406 19.6406C14.8802 19.401 15 19.1042 15 18.75C15 18.3958 14.8802 18.099 14.6406 17.8594C14.401 17.6198 14.1042 17.5 13.75 17.5C13.3958 17.5 13.099 17.6198 12.8594 17.8594C12.6198 18.099 12.5 18.3958 12.5 18.75C12.5 19.1042 12.6198 19.401 12.8594 19.6406C13.099 19.8802 13.3958 20 13.75 20ZM14.0625 7.8125L12.25 6C12.7917 5.5 13.3958 5.10417 14.0625 4.8125C14.7292 4.52083 15.4583 4.375 16.25 4.375C17.0417 4.375 17.7708 4.52083 18.4375 4.8125C19.1042 5.10417 19.7083 5.5 20.25 6L18.4375 7.8125C18.1458 7.52083 17.8177 7.29167 17.4531 7.125C17.0885 6.95833 16.6875 6.875 16.25 6.875C15.8125 6.875 15.4115 6.95833 15.0469 7.125C14.6823 7.29167 14.3542 7.52083 14.0625 7.8125ZM10.9375 4.6875L9.1875 2.9375C10.1042 2.02083 11.1667 1.30208 12.375 0.78125C13.5833 0.260417 14.875 0 16.25 0C17.625 0 18.9167 0.260417 20.125 0.78125C21.3333 1.30208 22.3958 2.02083 23.3125 2.9375L21.5625 4.6875C20.875 4 20.0781 3.46354 19.1719 3.07812C18.2656 2.69271 17.2917 2.5 16.25 2.5C15.2083 2.5 14.2344 2.69271 13.3281 3.07812C12.4219 3.46354 11.625 4 10.9375 4.6875ZM2.5 21.25V16.25V21.25Z" fill="#10B77F"/>
</svg>
