<svg width="40" height="40" viewBox="0 0 40 40" fill="none" xmlns="http://www.w3.org/2000/svg">
<rect width="40" height="40" rx="8" fill="#10B77F" fill-opacity="0.1"/>
<path d="M19.95 26C20.3 26 20.5958 25.8792 20.8375 25.6375C21.0792 25.3958 21.2 25.1 21.2 24.75C21.2 24.4 21.0792 24.1042 20.8375 23.8625C20.5958 23.6208 20.3 23.5 19.95 23.5C19.6 23.5 19.3042 23.6208 19.0625 23.8625C18.8208 24.1042 18.7 24.4 18.7 24.75C18.7 25.1 18.8208 25.3958 19.0625 25.6375C19.3042 25.8792 19.6 26 19.95 26ZM19.05 22.15H20.9C20.9 21.6 20.9625 21.1667 21.0875 20.85C21.2125 20.5333 21.5667 20.1 22.15 19.55C22.5833 19.1167 22.925 18.7042 23.175 18.3125C23.425 17.9208 23.55 17.45 23.55 16.9C23.55 15.9667 23.2083 15.25 22.525 14.75C21.8417 14.25 21.0333 14 20.1 14C19.15 14 18.3792 14.25 17.7875 14.75C17.1958 15.25 16.7833 15.85 16.55 16.55L18.2 17.2C18.2833 16.9 18.4708 16.575 18.7625 16.225C19.0542 15.875 19.5 15.7 20.1 15.7C20.6333 15.7 21.0333 15.8458 21.3 16.1375C21.5667 16.4292 21.7 16.75 21.7 17.1C21.7 17.4333 21.6 17.7458 21.4 18.0375C21.2 18.3292 20.95 18.6 20.65 18.85C19.9167 19.5 19.4667 19.9917 19.3 20.325C19.1333 20.6583 19.05 21.2667 19.05 22.15ZM20 30C18.6167 30 17.3167 29.7375 16.1 29.2125C14.8833 28.6875 13.825 27.975 12.925 27.075C12.025 26.175 11.3125 25.1167 10.7875 23.9C10.2625 22.6833 10 21.3833 10 20C10 18.6167 10.2625 17.3167 10.7875 16.1C11.3125 14.8833 12.025 13.825 12.925 12.925C13.825 12.025 14.8833 11.3125 16.1 10.7875C17.3167 10.2625 18.6167 10 20 10C21.3833 10 22.6833 10.2625 23.9 10.7875C25.1167 11.3125 26.175 12.025 27.075 12.925C27.975 13.825 28.6875 14.8833 29.2125 16.1C29.7375 17.3167 30 18.6167 30 20C30 21.3833 29.7375 22.6833 29.2125 23.9C28.6875 25.1167 27.975 26.175 27.075 27.075C26.175 27.975 25.1167 28.6875 23.9 29.2125C22.6833 29.7375 21.3833 30 20 30ZM20 28C22.2333 28 24.125 27.225 25.675 25.675C27.225 24.125 28 22.2333 28 20C28 17.7667 27.225 15.875 25.675 14.325C24.125 12.775 22.2333 12 20 12C17.7667 12 15.875 12.775 14.325 14.325C12.775 15.875 12 17.7667 12 20C12 22.2333 12.775 24.125 14.325 25.675C15.875 27.225 17.7667 28 20 28Z" fill="#10B77F"/>
</svg>
