<svg width="65" height="49" viewBox="0 0 65 49" fill="none" xmlns="http://www.w3.org/2000/svg">
<rect width="64.8412" height="48.4999" rx="24.2499" fill="#10B77F" fill-opacity="0.1"/>
<path d="M24.2499 26.673C23.5788 26.673 23.0072 26.4369 22.5351 25.9648C22.063 25.4927 21.8269 24.9211 21.8269 24.2499C21.8269 23.5788 22.063 23.0072 22.5351 22.5351C23.0072 22.063 23.5788 21.8269 24.2499 21.8269C24.9211 21.8269 25.4927 22.063 25.9648 22.5351C26.4369 23.0072 26.673 23.5788 26.673 24.2499C26.673 24.9211 26.4369 25.4927 25.9648 25.9648C25.4927 26.4369 24.9211 26.673 24.2499 26.673ZM24.2499 32.4999C21.9615 32.4999 20.0144 31.697 18.4086 30.0913C16.8029 28.4855 16 26.5384 16 24.2499C16 21.9615 16.8029 20.0144 18.4086 18.4086C20.0144 16.8029 21.9615 16 24.2499 16C25.8576 16 27.3115 16.4149 28.6115 17.2447C29.9115 18.0745 30.9038 19.1596 31.5884 20.5H45.0913L48.8412 24.2499L43.0721 29.9903L40.2884 27.8989L37.4327 30.0191L34.5048 27.9999H31.5884C30.9038 29.3307 29.9115 30.4134 28.6115 31.248C27.3115 32.0826 25.8576 32.4999 24.2499 32.4999ZM24.2499 30.2499C25.6884 30.2499 26.9341 29.8153 27.987 28.9461C29.0399 28.0769 29.7269 27.0115 30.048 25.7499H35.2115L37.3721 27.2442L40.3029 25.1009L42.85 27.048L45.648 24.2499L44.148 22.7499H30.048C29.7269 21.4884 29.0399 20.423 27.987 19.5538C26.9341 18.6846 25.6884 18.2499 24.2499 18.2499C22.5999 18.2499 21.1874 18.8374 20.0124 20.0124C18.8374 21.1874 18.2499 22.5999 18.2499 24.2499C18.2499 25.8999 18.8374 27.3124 20.0124 28.4874C21.1874 29.6624 22.5999 30.2499 24.2499 30.2499Z" fill="#10B77F"/>
</svg>
