<svg width="64" height="64" viewBox="0 0 64 64" fill="none" xmlns="http://www.w3.org/2000/svg">
<rect width="64" height="64" rx="12" fill="#10B77F" fill-opacity="0.2"/>
<path fill-rule="evenodd" clip-rule="evenodd" d="M44.8959 30.0219C45.6317 29.8636 45.9053 29.9658 45.9651 29.9945C45.9897 30.0459 46.0456 30.2142 46.0069 30.6114C45.9507 31.1879 45.7085 32.0039 45.2144 33.0251C44.2333 35.0526 42.4238 37.5526 39.9882 39.9882C37.5526 42.4238 35.0527 44.2333 33.0251 45.2144C32.0039 45.7085 31.1879 45.9506 30.6114 46.0069C30.2143 46.0456 30.0459 45.9896 29.9945 45.9651C29.9658 45.9053 29.8636 45.6317 30.0219 44.8959C30.2135 44.0045 30.7241 42.8048 31.5865 41.4014C32.6313 39.7014 34.1248 37.812 35.9684 35.9684C37.812 34.1248 39.7014 32.6312 41.4014 31.5864C42.8048 30.7241 44.0045 30.2135 44.8959 30.0219ZM15.6766 36.3669L27.6331 48.3234C28.5678 49.2581 29.8356 49.4316 30.9348 49.3244C32.0488 49.2159 33.2624 48.8026 34.4769 48.2149C36.921 47.0323 39.7182 44.9723 42.3452 42.3452C44.9723 39.7182 47.0323 36.921 48.2149 34.4769C48.8026 33.2624 49.2159 32.0488 49.3244 30.9348C49.4316 29.8356 49.2581 28.5678 48.3234 27.6331L36.3669 15.6766C35.2106 14.5203 33.5638 14.5215 32.2384 14.8065C30.8401 15.1072 29.2779 15.8202 27.6997 16.79C25.7482 17.9893 23.6568 19.653 21.6549 21.6549C19.653 23.6567 17.9893 25.7482 16.79 27.6997C15.8202 29.2779 15.1072 30.8401 14.8065 32.2384C14.5215 33.5638 14.5203 35.2106 15.6766 36.3669Z" fill="#10B77F"/>
</svg>
