<svg width="97" height="32" viewBox="0 0 97 32" fill="none" xmlns="http://www.w3.org/2000/svg">
<rect width="32" height="32" rx="8" fill="#10B77F"/>
<path d="M9.93504 13.0389L11.31 13.6389C11.46 13.3555 11.61 13.0764 11.76 12.8014C11.91 12.5264 12.0767 12.2472 12.26 11.9639L11.21 11.7639L9.93504 13.0389ZM13.835 15.5389L16.46 18.1639C17.26 17.7805 18.0184 17.3514 18.735 16.8764C19.4517 16.4014 20.1517 15.8222 20.835 15.1389C21.9184 14.0555 22.7809 12.8639 23.4225 11.5639C24.0642 10.2639 24.3767 8.95554 24.36 7.63887C23.0434 7.6222 21.735 7.9347 20.435 8.57637C19.135 9.21804 17.9434 10.0805 16.86 11.1639C16.1767 11.8472 15.5975 12.5472 15.1225 13.2639C14.6475 13.9805 14.2184 14.7389 13.835 15.5389ZM18.585 13.4139C18.235 13.0639 18.06 12.6347 18.06 12.1264C18.06 11.618 18.235 11.1889 18.585 10.8389C18.935 10.4889 19.3642 10.3139 19.8725 10.3139C20.3809 10.3139 20.81 10.4889 21.16 10.8389C21.51 11.1889 21.685 11.618 21.685 12.1264C21.685 12.6347 21.51 13.0639 21.16 13.4139C20.81 13.7639 20.3809 13.9389 19.8725 13.9389C19.3642 13.9389 18.935 13.7639 18.585 13.4139ZM18.935 22.0639L20.235 20.7889L20.035 19.7389C19.7517 19.9222 19.4725 20.0889 19.1975 20.2389C18.9225 20.3889 18.6434 20.5389 18.36 20.6889L18.935 22.0639ZM27.485 4.51387C27.7517 7.1972 27.51 9.58054 26.76 11.6639C26.01 13.7472 24.7767 15.6472 23.06 17.3639C23.0267 17.3972 22.9892 17.4389 22.9475 17.4889C22.9059 17.5389 22.8684 17.5805 22.835 17.6139L23.335 20.1639C23.435 20.6805 23.41 21.1889 23.26 21.6889C23.11 22.1889 22.8434 22.6305 22.46 23.0139L17.885 27.5889L15.26 21.4139L10.585 16.7389L4.41004 14.1139L8.98504 9.53887C9.36837 9.15554 9.81004 8.88887 10.31 8.73887C10.81 8.58887 11.3184 8.56387 11.835 8.66387L14.385 9.16387C14.4184 9.13054 14.4559 9.10137 14.4975 9.07637C14.5392 9.05137 14.5767 9.0222 14.61 8.98887C16.3267 7.2722 18.2309 6.03054 20.3225 5.26387C22.4142 4.4972 24.8017 4.2472 27.485 4.51387ZM6.93504 19.9139C7.68504 19.1639 8.57671 18.7847 9.61004 18.7764C10.6434 18.768 11.535 19.1389 12.285 19.8889C13.035 20.6389 13.4059 21.5305 13.3975 22.5639C13.3892 23.5972 13.01 24.4889 12.26 25.2389C11.71 25.7889 10.7809 26.2597 9.47254 26.6514C8.16421 27.043 6.57671 27.3222 4.71004 27.4889C4.87671 25.6222 5.15171 24.0305 5.53504 22.7139C5.91838 21.3972 6.38504 20.4639 6.93504 19.9139ZM9.18504 22.1389C9.05171 22.2722 8.93504 22.468 8.83504 22.7264C8.73504 22.9847 8.65171 23.2805 8.58504 23.6139C8.91838 23.5472 9.21421 23.4597 9.47254 23.3514C9.73088 23.243 9.92671 23.1222 10.06 22.9889C10.1934 22.8555 10.26 22.7097 10.26 22.5514C10.26 22.393 10.1934 22.2472 10.06 22.1139C9.92671 21.9805 9.78088 21.918 9.62254 21.9264C9.46421 21.9347 9.31838 22.0055 9.18504 22.1389Z" fill="#10221C"/>
<path d="M47.3193 23.7027C46.1172 23.7027 45.0653 23.4808 44.1635 23.0368C43.2616 22.5929 42.5614 21.9724 42.0628 21.1753C41.5641 20.3782 41.3148 19.4518 41.3148 18.3959V8.94922H44.2989V18.1492C44.2989 18.7157 44.4245 19.2181 44.6757 19.6562C44.927 20.0943 45.2784 20.4389 45.73 20.6899C46.1816 20.9409 46.7114 21.0663 47.3193 21.0663C47.9308 21.0663 48.4624 20.9409 48.9143 20.6899C49.3662 20.4389 49.717 20.0943 49.9667 19.6562C50.2165 19.2181 50.3413 18.7157 50.3413 18.1492V8.94922H53.3254V18.3959C53.3254 19.4518 53.0752 20.3782 52.5748 21.1753C52.0744 21.9724 51.3739 22.5929 50.4733 23.0368C49.5728 23.4808 48.5214 23.7027 47.3193 23.7027ZM55.3863 27.582V12.582H58.2669V14.4197H58.4094C58.5437 14.1295 58.7355 13.8319 58.985 13.5269C59.2345 13.2218 59.5649 12.9653 59.9763 12.7573C60.3877 12.5493 60.9025 12.4453 61.5208 12.4453C62.3303 12.4453 63.0694 12.6538 63.7381 13.0709C64.4069 13.4879 64.9426 14.1128 65.3453 14.9453C65.7479 15.7779 65.9493 16.816 65.9493 18.0598C65.9493 19.2714 65.7539 20.2951 65.3633 21.1309C64.9727 21.9667 64.4421 22.6008 63.7716 23.0331C63.1011 23.4655 62.3453 23.6816 61.5042 23.6816C60.9125 23.6816 60.4112 23.5813 60.0004 23.3806C59.5895 23.1799 59.2561 22.9316 59.0001 22.6359C58.7441 22.3402 58.5472 22.0458 58.4094 21.7525H58.3149V27.582H55.3863ZM60.6024 21.3341C61.1137 21.3341 61.5426 21.1941 61.889 20.9142C62.2355 20.6343 62.4979 20.2467 62.6763 19.7515C62.8547 19.2564 62.9439 18.6894 62.9439 18.0508C62.9439 17.4116 62.8555 16.8474 62.6786 16.3582C62.5017 15.869 62.24 15.4858 61.8935 15.2086C61.5471 14.9314 61.1167 14.7928 60.6024 14.7928C60.1005 14.7928 59.6745 14.9269 59.3243 15.1952C58.974 15.4634 58.7079 15.8406 58.526 16.3268C58.3441 16.813 58.2532 17.3876 58.2532 18.0508C58.2532 18.7069 58.3449 19.2809 58.5283 19.7728C58.7117 20.2647 58.9792 20.6479 59.331 20.9224C59.6827 21.1969 60.1065 21.3341 60.6024 21.3341ZM72.9192 12.582V14.8137H66.4414V12.582H72.9192ZM67.9449 9.98438H70.8735V20.3041C70.8735 20.6517 70.9508 20.908 71.1054 21.0728C71.2601 21.2376 71.514 21.3201 71.8672 21.3201C71.9814 21.3201 72.1389 21.3062 72.3395 21.2784C72.5402 21.2506 72.6928 21.2236 72.7973 21.1976L73.2167 23.3939C72.8902 23.4907 72.5666 23.558 72.2458 23.5958C71.9251 23.6336 71.6173 23.6525 71.3227 23.6525C70.2275 23.6525 69.3907 23.3868 68.8124 22.8554C68.2341 22.3239 67.9449 21.5595 67.9449 20.5621V9.98438ZM74.3179 23.5V12.582H77.1563V14.4832H77.2735C77.4718 13.8103 77.8069 13.3009 78.2788 12.9551C78.7506 12.6092 79.2928 12.4363 79.9051 12.4363C80.0564 12.4363 80.219 12.4449 80.3927 12.4619C80.5665 12.479 80.7195 12.5031 80.8518 12.5342V15.1508C80.7224 15.1062 80.5333 15.07 80.2845 15.0422C80.0357 15.0144 79.803 15.0005 79.5862 15.0005C79.1392 15.0005 78.738 15.0972 78.3826 15.2907C78.0272 15.4842 77.749 15.752 77.548 16.0942C77.347 16.4364 77.2465 16.8338 77.2465 17.2864V23.5H74.3179ZM82.0504 23.5V12.582H84.979V23.5H82.0504ZM83.5139 11.1588C83.0729 11.1588 82.695 11.0114 82.3803 10.7165C82.0656 10.4217 81.9082 10.0679 81.9082 9.65506C81.9082 9.23384 82.0656 8.87753 82.3803 8.58612C82.695 8.29471 83.0729 8.149 83.5139 8.149C83.9569 8.149 84.336 8.29452 84.6512 8.58555C84.9665 8.87659 85.1241 9.233 85.1241 9.65479C85.1241 10.0681 84.9665 10.4221 84.6512 10.7168C84.336 11.0115 83.9569 11.1588 83.5139 11.1588ZM86.1359 23.5L90.3582 16.7566L90.3537 19.0325L86.3447 12.582H89.5083L90.4965 14.3056C90.8094 14.8666 91.0918 15.4233 91.3437 15.976C91.5956 16.5286 91.8494 17.0631 92.1053 17.5797H90.9922C91.2616 17.0667 91.5198 16.533 91.7667 15.9786C92.0137 15.4242 92.3003 14.8666 92.6268 14.3056L93.6549 12.582H96.7583L92.677 19.0631V16.815L96.913 23.5H93.7697L92.5584 21.4444C92.238 20.8859 91.9489 20.3306 91.6912 19.7784C91.4335 19.2263 91.173 18.6964 90.9096 18.1889H92.0272C91.7743 18.6964 91.5269 19.2263 91.285 19.7784C91.0431 20.3306 90.7639 20.8859 90.4475 21.4444L89.243 23.5H86.1359Z" fill="#F1F5F9"/>
</svg>
