<svg width="64" height="64" viewBox="0 0 64 64" fill="none" xmlns="http://www.w3.org/2000/svg">
<rect width="64" height="64" rx="32" fill="#10B77F" fill-opacity="0.1"/>
<path d="M32 47C29.925 47 27.975 46.6063 26.15 45.8188C24.325 45.0312 22.7375 43.9625 21.3875 42.6125C20.0375 41.2625 18.9688 39.675 18.1812 37.85C17.3937 36.025 17 34.075 17 32H20C20 33.65 20.3125 35.2063 20.9375 36.6688C21.5625 38.1313 22.4187 39.4062 23.5062 40.4937C24.5938 41.5812 25.8688 42.4437 27.3313 43.0812C28.7937 43.7188 30.35 44.0375 32 44.0375C35.35 44.0375 38.1875 42.875 40.5125 40.55C42.8375 38.225 44 35.3875 44 32.0375C44 28.6875 42.8375 25.85 40.5125 23.525C38.1875 21.2 35.35 20.0375 32 20.0375C29.775 20.0375 27.7563 20.5812 25.9438 21.6687C24.1313 22.7562 22.7 24.2 21.65 26H26V29H17V20H20V23C21.375 21.175 23.1 19.7188 25.175 18.6313C27.25 17.5438 29.525 17 32 17C34.075 17 36.025 17.3937 37.85 18.1812C39.675 18.9688 41.2625 20.0375 42.6125 21.3875C43.9625 22.7375 45.0312 24.325 45.8188 26.15C46.6063 27.975 47 29.925 47 32C47 34.075 46.6063 36.025 45.8188 37.85C45.0312 39.675 43.9625 41.2625 42.6125 42.6125C41.2625 43.9625 39.675 45.0312 37.85 45.8188C36.025 46.6063 34.075 47 32 47ZM29 38C28.575 38 28.2188 37.8563 27.9312 37.5688C27.6437 37.2812 27.5 36.925 27.5 36.5V32C27.5 31.575 27.6437 31.2188 27.9312 30.9312C28.2188 30.6437 28.575 30.5 29 30.5V29C29 28.175 29.2938 27.4688 29.8813 26.8813C30.4688 26.2938 31.175 26 32 26C32.825 26 33.5312 26.2938 34.1187 26.8813C34.7062 27.4688 35 28.175 35 29V30.5C35.425 30.5 35.7812 30.6437 36.0688 30.9312C36.3563 31.2188 36.5 31.575 36.5 32V36.5C36.5 36.925 36.3563 37.2812 36.0688 37.5688C35.7812 37.8563 35.425 38 35 38H29ZM30.5 30.5H33.5V29C33.5 28.575 33.3563 28.2188 33.0688 27.9312C32.7812 27.6437 32.425 27.5 32 27.5C31.575 27.5 31.2188 27.6437 30.9312 27.9312C30.6437 28.2188 30.5 28.575 30.5 29V30.5Z" fill="#10B77F"/>
</svg>
