<svg width="23" height="24" viewBox="0 0 23 24" fill="none" xmlns="http://www.w3.org/2000/svg">
<path d="M5.625 3.75C5.10417 3.75 4.66146 3.93229 4.29688 4.29688C3.93229 4.66146 3.75 5.10417 3.75 5.625C3.75 6.14583 3.93229 6.58854 4.29688 6.95312C4.66146 7.31771 5.10417 7.5 5.625 7.5C6.14583 7.5 6.58854 7.31771 6.95312 6.95312C7.31771 6.58854 7.5 6.14583 7.5 5.625C7.5 5.10417 7.31771 4.66146 6.95312 4.29688C6.58854 3.93229 6.14583 3.75 5.625 3.75ZM5.625 16.25C5.10417 16.25 4.66146 16.4323 4.29688 16.7969C3.93229 17.1615 3.75 17.6042 3.75 18.125C3.75 18.6458 3.93229 19.0885 4.29688 19.4531C4.66146 19.8177 5.10417 20 5.625 20C6.14583 20 6.58854 19.8177 6.95312 19.4531C7.31771 19.0885 7.5 18.6458 7.5 18.125C7.5 17.6042 7.31771 17.1615 6.95312 16.7969C6.58854 16.4323 6.14583 16.25 5.625 16.25ZM1.25 0H21.25C21.6042 0 21.901 0.119792 22.1406 0.359375C22.3802 0.598958 22.5 0.895833 22.5 1.25V10C22.5 10.3542 22.3802 10.651 22.1406 10.8906C21.901 11.1302 21.6042 11.25 21.25 11.25H1.25C0.895833 11.25 0.598958 11.1302 0.359375 10.8906C0.119792 10.651 0 10.3542 0 10V1.25C0 0.895833 0.119792 0.598958 0.359375 0.359375C0.598958 0.119792 0.895833 0 1.25 0ZM2.5 2.5V8.75H20V2.5H2.5ZM1.25 12.5H21.25C21.6042 12.5 21.901 12.6198 22.1406 12.8594C22.3802 13.099 22.5 13.3958 22.5 13.75V22.5C22.5 22.8542 22.3802 23.151 22.1406 23.3906C21.901 23.6302 21.6042 23.75 21.25 23.75H1.25C0.895833 23.75 0.598958 23.6302 0.359375 23.3906C0.119792 23.151 0 22.8542 0 22.5V13.75C0 13.3958 0.119792 13.099 0.359375 12.8594C0.598958 12.6198 0.895833 12.5 1.25 12.5ZM2.5 15V21.25H20V15H2.5ZM2.5 2.5V8.75V2.5ZM2.5 15V21.25V15Z" fill="#10B77F"/>
</svg>
