<svg width="89" height="25" viewBox="0 0 89 25" fill="none" xmlns="http://www.w3.org/2000/svg">
<path d="M10.6562 17.5C11.4479 17.5 12.224 17.3333 12.9844 17C13.7448 16.6667 14.4062 16.1667 14.9688 15.5C15.1146 15.3333 15.1458 15.1458 15.0625 14.9375C14.9792 14.7292 14.8333 14.6042 14.625 14.5625C13.8333 14.4375 13.0833 14.1406 12.375 13.6719C11.6667 13.2031 11.0938 12.5833 10.6562 11.8125C10.2396 11.0833 9.99479 10.2969 9.92188 9.45312C9.84896 8.60938 9.95833 7.79167 10.25 7C10.3333 6.79167 10.3073 6.60417 10.1719 6.4375C10.0365 6.27083 9.85417 6.20833 9.625 6.25C8.1875 6.52083 7.05208 7.19792 6.21875 8.28125C5.38542 9.36458 4.96875 10.5625 4.96875 11.875C4.96875 13.4375 5.52604 14.7656 6.64062 15.8594C7.75521 16.9531 9.09375 17.5 10.6562 17.5ZM10 25C7.10417 24.2708 4.71354 22.6094 2.82812 20.0156C0.942708 17.4219 0 14.5417 0 11.375V3.75L10 0L20 3.75V11.375C20 14.5417 19.0573 17.4219 17.1719 20.0156C15.2865 22.6094 12.8958 24.2708 10 25ZM10 22.375C12.1667 21.6875 13.9583 20.3125 15.375 18.25C16.7917 16.1875 17.5 13.8958 17.5 11.375V5.46875L10 2.65625L2.5 5.46875V11.375C2.5 13.8958 3.20833 16.1875 4.625 18.25C6.04167 20.3125 7.83333 21.6875 10 22.375Z" fill="#10B77F"/>
<path d="M39.3193 20.2027C38.1172 20.2027 37.0653 19.9808 36.1635 19.5368C35.2616 19.0929 34.5614 18.4724 34.0628 17.6753C33.5641 16.8782 33.3148 15.9518 33.3148 14.8959V5.44922H36.2989V14.6492C36.2989 15.2157 36.4245 15.7181 36.6757 16.1562C36.927 16.5943 37.2784 16.9389 37.73 17.1899C38.1816 17.4409 38.7114 17.5663 39.3193 17.5663C39.9308 17.5663 40.4624 17.4409 40.9143 17.1899C41.3662 16.9389 41.717 16.5943 41.9667 16.1562C42.2165 15.7181 42.3413 15.2157 42.3413 14.6492V5.44922H45.3254V14.8959C45.3254 15.9518 45.0752 16.8782 44.5748 17.6753C44.0744 18.4724 43.3739 19.0929 42.4733 19.5368C41.5728 19.9808 40.5214 20.2027 39.3193 20.2027ZM47.3863 24.082V9.08203H50.2669V10.9197H50.4094C50.5437 10.6295 50.7355 10.3319 50.985 10.0269C51.2345 9.72184 51.5649 9.46533 51.9763 9.25732C52.3877 9.04932 52.9025 8.94531 53.5208 8.94531C54.3303 8.94531 55.0694 9.15384 55.7381 9.57089C56.4069 9.98795 56.9426 10.6128 57.3453 11.4453C57.7479 12.2779 57.9493 13.316 57.9493 14.5598C57.9493 15.7714 57.7539 16.7951 57.3633 17.6309C56.9727 18.4667 56.4421 19.1008 55.7716 19.5331C55.1011 19.9655 54.3453 20.1816 53.5042 20.1816C52.9125 20.1816 52.4112 20.0813 52.0004 19.8806C51.5895 19.6799 51.2561 19.4316 51.0001 19.1359C50.7441 18.8402 50.5472 18.5458 50.4094 18.2525H50.3149V24.082H47.3863ZM52.6024 17.8341C53.1137 17.8341 53.5426 17.6941 53.889 17.4142C54.2355 17.1343 54.4979 16.7467 54.6763 16.2515C54.8547 15.7564 54.9439 15.1894 54.9439 14.5508C54.9439 13.9116 54.8555 13.3474 54.6786 12.8582C54.5017 12.369 54.24 11.9858 53.8935 11.7086C53.5471 11.4314 53.1167 11.2928 52.6024 11.2928C52.1005 11.2928 51.6745 11.4269 51.3243 11.6952C50.974 11.9634 50.7079 12.3406 50.526 12.8268C50.3441 13.313 50.2532 13.8876 50.2532 14.5508C50.2532 15.2069 50.3449 15.7809 50.5283 16.2728C50.7117 16.7647 50.9792 17.1479 51.331 17.4224C51.6827 17.6969 52.1065 17.8341 52.6024 17.8341ZM64.9192 9.08203V11.3137H58.4414V9.08203H64.9192ZM59.9449 6.48438H62.8735V16.8041C62.8735 17.1517 62.9508 17.408 63.1054 17.5728C63.2601 17.7376 63.514 17.8201 63.8672 17.8201C63.9814 17.8201 64.1389 17.8062 64.3395 17.7784C64.5402 17.7506 64.6928 17.7236 64.7973 17.6976L65.2167 19.8939C64.8902 19.9907 64.5666 20.058 64.2458 20.0958C63.9251 20.1336 63.6173 20.1525 63.3227 20.1525C62.2275 20.1525 61.3907 19.8868 60.8124 19.3554C60.2341 18.8239 59.9449 18.0595 59.9449 17.0621V6.48438ZM66.3179 20V9.08203H69.1563V10.9832H69.2735C69.4718 10.3103 69.8069 9.80091 70.2788 9.45508C70.7506 9.10925 71.2928 8.93633 71.9051 8.93633C72.0564 8.93633 72.219 8.94486 72.3927 8.96192C72.5665 8.97897 72.7195 9.00306 72.8518 9.03419V11.6508C72.7224 11.6062 72.5333 11.57 72.2845 11.5422C72.0357 11.5144 71.803 11.5005 71.5862 11.5005C71.1392 11.5005 70.738 11.5972 70.3826 11.7907C70.0272 11.9842 69.749 12.252 69.548 12.5942C69.347 12.9364 69.2465 13.3338 69.2465 13.7864V20H66.3179ZM74.0504 20V9.08203H76.979V20H74.0504ZM75.5139 7.65882C75.0729 7.65882 74.695 7.51139 74.3803 7.21653C74.0656 6.92168 73.9082 6.56786 73.9082 6.15506C73.9082 5.73384 74.0656 5.37753 74.3803 5.08612C74.695 4.79471 75.0729 4.649 75.5139 4.649C75.9569 4.649 76.336 4.79452 76.6512 5.08555C76.9665 5.37659 77.1241 5.733 77.1241 6.15479C77.1241 6.56814 76.9665 6.92215 76.6512 7.21682C76.336 7.51148 75.9569 7.65882 75.5139 7.65882ZM78.1359 20L82.3582 13.2566L82.3537 15.5325L78.3447 9.08203H81.5083L82.4965 10.8056C82.8094 11.3666 83.0918 11.9233 83.3437 12.476C83.5956 13.0286 83.8494 13.5631 84.1053 14.0797H82.9922C83.2616 13.5667 83.5198 13.033 83.7667 12.4786C84.0137 11.9242 84.3003 11.3666 84.6268 10.8056L85.6549 9.08203H88.7583L84.677 15.5631V13.315L88.913 20H85.7697L84.5584 17.9444C84.238 17.3859 83.9489 16.8306 83.6912 16.2784C83.4335 15.7263 83.173 15.1964 82.9096 14.6889H84.0272C83.7743 15.1964 83.5269 15.7263 83.285 16.2784C83.0431 16.8306 82.7639 17.3859 82.4475 17.9444L81.243 20H78.1359Z" fill="white"/>
</svg>
