<svg width="97" height="32" viewBox="0 0 97 32" fill="none" xmlns="http://www.w3.org/2000/svg">
<rect width="32" height="32" rx="8" fill="#10B77F" fill-opacity="0.2"/>
<path d="M16 17C15.0167 17 14.1875 16.6625 13.5125 15.9875C12.8375 15.3125 12.5 14.4833 12.5 13.5C12.5 12.5167 12.8375 11.6875 13.5125 11.0125C14.1875 10.3375 15.0167 10 16 10C16.9833 10 17.8125 10.3375 18.4875 11.0125C19.1625 11.6875 19.5 12.5167 19.5 13.5C19.5 14.4833 19.1625 15.3125 18.4875 15.9875C17.8125 16.6625 16.9833 17 16 17ZM16 15C16.4333 15 16.7917 14.8583 17.075 14.575C17.3583 14.2917 17.5 13.9333 17.5 13.5C17.5 13.0667 17.3583 12.7083 17.075 12.425C16.7917 12.1417 16.4333 12 16 12C15.5667 12 15.2083 12.1417 14.925 12.425C14.6417 12.7083 14.5 13.0667 14.5 13.5C14.5 13.9333 14.6417 14.2917 14.925 14.575C15.2083 14.8583 15.5667 15 16 15ZM16 26C13.6833 25.4167 11.7708 24.0875 10.2625 22.0125C8.75417 19.9375 8 17.6333 8 15.1V9L16 6L24 9V15.1C24 17.6333 23.2458 19.9375 21.7375 22.0125C20.2292 24.0875 18.3167 25.4167 16 26ZM16 8.125L10 10.375V15.1C10 16 10.125 16.875 10.375 17.725C10.625 18.575 10.9667 19.375 11.4 20.125C12.1 19.775 12.8333 19.5 13.6 19.3C14.3667 19.1 15.1667 19 16 19C16.8333 19 17.6333 19.1 18.4 19.3C19.1667 19.5 19.9 19.775 20.6 20.125C21.0333 19.375 21.375 18.575 21.625 17.725C21.875 16.875 22 16 22 15.1V10.375L16 8.125ZM16 21C15.4 21 14.8167 21.0667 14.25 21.2C13.6833 21.3333 13.1417 21.5167 12.625 21.75C13.1083 22.25 13.6333 22.6833 14.2 23.05C14.7667 23.4167 15.3667 23.7 16 23.9C16.6333 23.7 17.2333 23.4167 17.8 23.05C18.3667 22.6833 18.8917 22.25 19.375 21.75C18.8583 21.5167 18.3167 21.3333 17.75 21.2C17.1833 21.0667 16.6 21 16 21Z" fill="#10B77F"/>
<path d="M47.3193 23.2027C46.1172 23.2027 45.0653 22.9808 44.1635 22.5368C43.2616 22.0929 42.5614 21.4724 42.0628 20.6753C41.5641 19.8782 41.3148 18.9518 41.3148 17.8959V8.44922H44.2989V17.6492C44.2989 18.2157 44.4245 18.7181 44.6757 19.1562C44.927 19.5943 45.2784 19.9389 45.73 20.1899C46.1816 20.4409 46.7114 20.5663 47.3193 20.5663C47.9308 20.5663 48.4624 20.4409 48.9143 20.1899C49.3662 19.9389 49.717 19.5943 49.9667 19.1562C50.2165 18.7181 50.3413 18.2157 50.3413 17.6492V8.44922H53.3254V17.8959C53.3254 18.9518 53.0752 19.8782 52.5748 20.6753C52.0744 21.4724 51.3739 22.0929 50.4733 22.5368C49.5728 22.9808 48.5214 23.2027 47.3193 23.2027ZM55.3863 27.082V12.082H58.2669V13.9197H58.4094C58.5437 13.6295 58.7355 13.3319 58.985 13.0269C59.2345 12.7218 59.5649 12.4653 59.9763 12.2573C60.3877 12.0493 60.9025 11.9453 61.5208 11.9453C62.3303 11.9453 63.0694 12.1538 63.7381 12.5709C64.4069 12.9879 64.9426 13.6128 65.3453 14.4453C65.7479 15.2779 65.9493 16.316 65.9493 17.5598C65.9493 18.7714 65.7539 19.7951 65.3633 20.6309C64.9727 21.4667 64.4421 22.1008 63.7716 22.5331C63.1011 22.9655 62.3453 23.1816 61.5042 23.1816C60.9125 23.1816 60.4112 23.0813 60.0004 22.8806C59.5895 22.6799 59.2561 22.4316 59.0001 22.1359C58.7441 21.8402 58.5472 21.5458 58.4094 21.2525H58.3149V27.082H55.3863ZM60.6024 20.8341C61.1137 20.8341 61.5426 20.6941 61.889 20.4142C62.2355 20.1343 62.4979 19.7467 62.6763 19.2515C62.8547 18.7564 62.9439 18.1894 62.9439 17.5508C62.9439 16.9116 62.8555 16.3474 62.6786 15.8582C62.5017 15.369 62.24 14.9858 61.8935 14.7086C61.5471 14.4314 61.1167 14.2928 60.6024 14.2928C60.1005 14.2928 59.6745 14.4269 59.3243 14.6952C58.974 14.9634 58.7079 15.3406 58.526 15.8268C58.3441 16.313 58.2532 16.8876 58.2532 17.5508C58.2532 18.2069 58.3449 18.7809 58.5283 19.2728C58.7117 19.7647 58.9792 20.1479 59.331 20.4224C59.6827 20.6969 60.1065 20.8341 60.6024 20.8341ZM72.9192 12.082V14.3137H66.4414V12.082H72.9192ZM67.9449 9.48438H70.8735V19.8041C70.8735 20.1517 70.9508 20.408 71.1054 20.5728C71.2601 20.7376 71.514 20.8201 71.8672 20.8201C71.9814 20.8201 72.1389 20.8062 72.3395 20.7784C72.5402 20.7506 72.6928 20.7236 72.7973 20.6976L73.2167 22.8939C72.8902 22.9907 72.5666 23.058 72.2458 23.0958C71.9251 23.1336 71.6173 23.1525 71.3227 23.1525C70.2275 23.1525 69.3907 22.8868 68.8124 22.3554C68.2341 21.8239 67.9449 21.0595 67.9449 20.0621V9.48438ZM74.3179 23V12.082H77.1563V13.9832H77.2735C77.4718 13.3103 77.8069 12.8009 78.2788 12.4551C78.7506 12.1092 79.2928 11.9363 79.9051 11.9363C80.0564 11.9363 80.219 11.9449 80.3927 11.9619C80.5665 11.979 80.7195 12.0031 80.8518 12.0342V14.6508C80.7224 14.6062 80.5333 14.57 80.2845 14.5422C80.0357 14.5144 79.803 14.5005 79.5862 14.5005C79.1392 14.5005 78.738 14.5972 78.3826 14.7907C78.0272 14.9842 77.749 15.252 77.548 15.5942C77.347 15.9364 77.2465 16.3338 77.2465 16.7864V23H74.3179ZM82.0504 23V12.082H84.979V23H82.0504ZM83.5139 10.6588C83.0729 10.6588 82.695 10.5114 82.3803 10.2165C82.0656 9.92168 81.9082 9.56786 81.9082 9.15506C81.9082 8.73384 82.0656 8.37753 82.3803 8.08612C82.695 7.79471 83.0729 7.649 83.5139 7.649C83.9569 7.649 84.336 7.79452 84.6512 8.08555C84.9665 8.37659 85.1241 8.733 85.1241 9.15479C85.1241 9.56814 84.9665 9.92215 84.6512 10.2168C84.336 10.5115 83.9569 10.6588 83.5139 10.6588ZM86.1359 23L90.3582 16.2566L90.3537 18.5325L86.3447 12.082H89.5083L90.4965 13.8056C90.8094 14.3666 91.0918 14.9233 91.3437 15.476C91.5956 16.0286 91.8494 16.5631 92.1053 17.0797H90.9922C91.2616 16.5667 91.5198 16.033 91.7667 15.4786C92.0137 14.9242 92.3003 14.3666 92.6268 13.8056L93.6549 12.082H96.7583L92.677 18.5631V16.315L96.913 23H93.7697L92.5584 20.9444C92.238 20.3859 91.9489 19.8306 91.6912 19.2784C91.4335 18.7263 91.173 18.1964 90.9096 17.6889H92.0272C91.7743 18.1964 91.5269 18.7263 91.285 19.2784C91.0431 19.8306 90.7639 20.3859 90.4475 20.9444L89.243 23H86.1359Z" fill="#F1F5F9"/>
</svg>
