<svg width="101" height="32" viewBox="0 0 101 32" fill="none" xmlns="http://www.w3.org/2000/svg">
<path fill-rule="evenodd" clip-rule="evenodd" d="M26.3166 14.4174C26.9053 14.2908 27.1241 14.3725 27.172 14.3955C27.1917 14.4366 27.2364 14.5713 27.2054 14.889C27.1605 15.3503 26.9667 16.003 26.5714 16.82C25.7865 18.442 24.3389 20.442 22.3905 22.3905C20.442 24.3389 18.4421 25.7865 16.82 26.5714C16.003 26.9667 15.3503 27.1604 14.889 27.2054C14.5713 27.2364 14.4367 27.1916 14.3955 27.172C14.3725 27.1241 14.2908 26.9053 14.4174 26.3166C14.5707 25.6035 14.9792 24.6437 15.6691 23.5211C16.5049 22.1611 17.6997 20.6495 19.1747 19.1746C20.6495 17.6997 22.1611 16.5049 23.5211 15.6691C24.6437 14.9792 25.6035 14.5707 26.3166 14.4174ZM2.94118 19.4935L12.5064 29.0587C13.2541 29.8064 14.2684 29.9452 15.1477 29.8595C16.0389 29.7726 17.0098 29.442 17.9815 28.9719C19.9367 28.0257 22.1745 26.3777 24.2761 24.2761C26.3777 22.1745 28.0257 19.9367 28.9719 17.9815C29.442 17.0098 29.7726 16.0389 29.8595 15.1477C29.9452 14.2684 29.8064 13.2541 29.0587 12.5064L19.4935 2.94118C18.5684 2.01612 17.2509 2.01708 16.1907 2.2451C15.072 2.48568 13.8222 3.05606 12.5597 3.83194C10.9985 4.79137 9.32532 6.12228 7.72379 7.72379C6.12228 9.32526 4.79137 10.9985 3.83193 12.5597C3.05606 13.8222 2.48569 15.072 2.24511 16.1907C2.01708 17.2509 2.01611 18.5684 2.94118 19.4935Z" fill="#10B77F"/>
<path d="M51.3193 23.7027C50.1172 23.7027 49.0653 23.4808 48.1635 23.0368C47.2616 22.5929 46.5614 21.9724 46.0628 21.1753C45.5641 20.3782 45.3148 19.4518 45.3148 18.3959V8.94922H48.2989V18.1492C48.2989 18.7157 48.4245 19.2181 48.6757 19.6562C48.927 20.0943 49.2784 20.4389 49.73 20.6899C50.1816 20.9409 50.7114 21.0663 51.3193 21.0663C51.9308 21.0663 52.4624 20.9409 52.9143 20.6899C53.3662 20.4389 53.717 20.0943 53.9667 19.6562C54.2165 19.2181 54.3413 18.7157 54.3413 18.1492V8.94922H57.3254V18.3959C57.3254 19.4518 57.0752 20.3782 56.5748 21.1753C56.0744 21.9724 55.3739 22.5929 54.4733 23.0368C53.5728 23.4808 52.5214 23.7027 51.3193 23.7027ZM59.3863 27.582V12.582H62.2669V14.4197H62.4094C62.5437 14.1295 62.7355 13.8319 62.985 13.5269C63.2345 13.2218 63.5649 12.9653 63.9763 12.7573C64.3877 12.5493 64.9025 12.4453 65.5208 12.4453C66.3303 12.4453 67.0694 12.6538 67.7381 13.0709C68.4069 13.4879 68.9426 14.1128 69.3453 14.9453C69.7479 15.7779 69.9493 16.816 69.9493 18.0598C69.9493 19.2714 69.7539 20.2951 69.3633 21.1309C68.9727 21.9667 68.4421 22.6008 67.7716 23.0331C67.1011 23.4655 66.3453 23.6816 65.5042 23.6816C64.9125 23.6816 64.4112 23.5813 64.0004 23.3806C63.5895 23.1799 63.2561 22.9316 63.0001 22.6359C62.7441 22.3402 62.5472 22.0458 62.4094 21.7525H62.3149V27.582H59.3863ZM64.6024 21.3341C65.1137 21.3341 65.5426 21.1941 65.889 20.9142C66.2355 20.6343 66.4979 20.2467 66.6763 19.7515C66.8547 19.2564 66.9439 18.6894 66.9439 18.0508C66.9439 17.4116 66.8555 16.8474 66.6786 16.3582C66.5017 15.869 66.24 15.4858 65.8935 15.2086C65.5471 14.9314 65.1167 14.7928 64.6024 14.7928C64.1005 14.7928 63.6745 14.9269 63.3243 15.1952C62.974 15.4634 62.7079 15.8406 62.526 16.3268C62.3441 16.813 62.2532 17.3876 62.2532 18.0508C62.2532 18.7069 62.3449 19.2809 62.5283 19.7728C62.7117 20.2647 62.9792 20.6479 63.331 20.9224C63.6827 21.1969 64.1065 21.3341 64.6024 21.3341ZM76.9192 12.582V14.8137H70.4414V12.582H76.9192ZM71.9449 9.98438H74.8735V20.3041C74.8735 20.6517 74.9508 20.908 75.1054 21.0728C75.2601 21.2376 75.514 21.3201 75.8672 21.3201C75.9814 21.3201 76.1389 21.3062 76.3395 21.2784C76.5402 21.2506 76.6928 21.2236 76.7973 21.1976L77.2167 23.3939C76.8902 23.4907 76.5666 23.558 76.2458 23.5958C75.9251 23.6336 75.6173 23.6525 75.3227 23.6525C74.2275 23.6525 73.3907 23.3868 72.8124 22.8554C72.2341 22.3239 71.9449 21.5595 71.9449 20.5621V9.98438ZM78.3179 23.5V12.582H81.1563V14.4832H81.2735C81.4718 13.8103 81.8069 13.3009 82.2788 12.9551C82.7506 12.6092 83.2928 12.4363 83.9051 12.4363C84.0564 12.4363 84.219 12.4449 84.3927 12.4619C84.5665 12.479 84.7195 12.5031 84.8518 12.5342V15.1508C84.7224 15.1062 84.5333 15.07 84.2845 15.0422C84.0357 15.0144 83.803 15.0005 83.5862 15.0005C83.1392 15.0005 82.738 15.0972 82.3826 15.2907C82.0272 15.4842 81.749 15.752 81.548 16.0942C81.347 16.4364 81.2465 16.8338 81.2465 17.2864V23.5H78.3179ZM86.0504 23.5V12.582H88.979V23.5H86.0504ZM87.5139 11.1588C87.0729 11.1588 86.695 11.0114 86.3803 10.7165C86.0656 10.4217 85.9082 10.0679 85.9082 9.65506C85.9082 9.23384 86.0656 8.87753 86.3803 8.58612C86.695 8.29471 87.0729 8.149 87.5139 8.149C87.9569 8.149 88.336 8.29452 88.6512 8.58555C88.9665 8.87659 89.1241 9.233 89.1241 9.65479C89.1241 10.0681 88.9665 10.4221 88.6512 10.7168C88.336 11.0115 87.9569 11.1588 87.5139 11.1588ZM90.1359 23.5L94.3582 16.7566L94.3537 19.0325L90.3447 12.582H93.5083L94.4965 14.3056C94.8094 14.8666 95.0918 15.4233 95.3437 15.976C95.5956 16.5286 95.8494 17.0631 96.1053 17.5797H94.9922C95.2616 17.0667 95.5198 16.533 95.7667 15.9786C96.0137 15.4242 96.3003 14.8666 96.6268 14.3056L97.6549 12.582H100.758L96.677 19.0631V16.815L100.913 23.5H97.7697L96.5584 21.4444C96.238 20.8859 95.9489 20.3306 95.6912 19.7784C95.4335 19.2263 95.173 18.6964 94.9096 18.1889H96.0272C95.7743 18.6964 95.5269 19.2263 95.285 19.7784C95.0431 20.3306 94.7639 20.8859 94.4475 21.4444L93.243 23.5H90.1359Z" fill="white"/>
</svg>
