<svg width="64" height="64" viewBox="0 0 64 64" fill="none" xmlns="http://www.w3.org/2000/svg">
<rect width="64" height="64" rx="32" fill="#10B77F" fill-opacity="0.1"/>
<path d="M20 45.5C19.175 45.5 18.4688 45.2062 17.8813 44.6187C17.2938 44.0312 17 43.325 17 42.5V24.5C17 23.675 17.2938 22.9688 17.8813 22.3812C18.4688 21.7937 19.175 21.5 20 21.5H35.15C35.05 22 35 22.5 35 23C35 23.5 35.05 24 35.15 24.5H20L32 32L37.475 28.5875C37.825 28.9125 38.2062 29.1937 38.6187 29.4312C39.0312 29.6687 39.4625 29.875 39.9125 30.05L32 35L20 27.5V42.5H44V30.35C44.575 30.225 45.1125 30.05 45.6125 29.825C46.1125 29.6 46.575 29.325 47 29V42.5C47 43.325 46.7062 44.0312 46.1187 44.6187C45.5312 45.2062 44.825 45.5 44 45.5H20ZM20 24.5V42.5V24.5ZM42.5 27.5C41.25 27.5 40.1875 27.0625 39.3125 26.1875C38.4375 25.3125 38 24.25 38 23C38 21.75 38.4375 20.6875 39.3125 19.8125C40.1875 18.9375 41.25 18.5 42.5 18.5C43.75 18.5 44.8125 18.9375 45.6875 19.8125C46.5625 20.6875 47 21.75 47 23C47 24.25 46.5625 25.3125 45.6875 26.1875C44.8125 27.0625 43.75 27.5 42.5 27.5Z" fill="#10B77F"/>
</svg>
